<svg xmlns="http://www.w3.org/2000/svg" viewBox="0 0 32 32" fill="none">
  <!-- Background rounded square -->
  <rect width="32" height="32" rx="8" fill="#6C3FC5"/>
  
  <!-- Document shape -->
  <rect x="8" y="6" width="12" height="16" rx="2" fill="white" opacity="0.15"/>
  <rect x="8" y="6" width="11" height="15" rx="2" fill="white" opacity="0.9"/>
  
  <!-- Folded corner -->
  <path d="M16 6 L19 6 L19 9 Z" fill="#6C3FC5" opacity="0.5"/>
  <path d="M16 6 L19 9 L16 9 Z" fill="white" opacity="0.6"/>
  
  <!-- Document lines -->
  <rect x="10" y="12" width="7" height="1.2" rx="0.6" fill="#6C3FC5" opacity="0.5"/>
  <rect x="10" y="14.5" width="5" height="1.2" rx="0.6" fill="#6C3FC5" opacity="0.5"/>
  <rect x="10" y="17" width="6" height="1.2" rx="0.6" fill="#6C3FC5" opacity="0.5"/>
  
  <!-- AI brain/circuit dot -->
  <circle cx="22" cy="22" r="6" fill="#8B5CF6"/>
  <circle cx="22" cy="22" r="4.5" fill="#6C3FC5"/>
  
  <!-- Circuit nodes -->
  <circle cx="22" cy="19.5" r="1" fill="white"/>
  <circle cx="20" cy="22.5" r="1" fill="white"/>
  <circle cx="24" cy="22.5" r="1" fill="white"/>
  
  <!-- Circuit lines -->
  <line x1="22" y1="20.5" x2="22" y2="21.5" stroke="white" stroke-width="0.8"/>
  <line x1="22" y1="21.5" x2="20" y2="21.5" stroke="white" stroke-width="0.8"/>
  <line x1="22" y1="21.5" x2="24" y2="21.5" stroke="white" stroke-width="0.8"/>
  <line x1="20" y1="21.5" x2="20" y2="22.5" stroke="white" stroke-width="0.8" opacity="0.6"/>
  <line x1="24" y1="21.5" x2="24" y2="22.5" stroke="white" stroke-width="0.8" opacity="0.6"/>
</svg>
